<?xml version="1.0" encoding="utf-8"?>
<!-- Generator: Adobe Illustrator 23.0.6, SVG Export Plug-In . SVG Version: 6.00 Build 0)  -->
<svg version="1.1" id="Слой_1" xmlns="http://www.w3.org/2000/svg" xmlns:xlink="http://www.w3.org/1999/xlink" x="0px" y="0px"
	 viewBox="0 0 12 12" style="enable-background:new 0 0 12 12;" xml:space="preserve">
<style type="text/css">
	.st0{fill:#EDECED;}
</style>
<g>
	<path d="M10.3,5.6C10,4.9,9.6,4,9,3.1C8.5,2.2,7.9,1.4,7.3,0.9C6.7,0.3,6.2,0.1,5.8,0.3C5.6,0.4,5.5,0.6,5.5,0.8
		c-0.4,0.8-1.7,2.9-4.8,5C0.5,6,0.4,6.3,0.4,6.6c0.2,1.1,0.8,2.1,1.7,2.8c0.1,0.1,0.3,0.1,0.4,0.1c0.1,0,0.2,0,0.4-0.1
		c0.2-0.1,0.4-0.2,0.5-0.3c0.3,0.9,1.1,2.1,2.1,2.7c0.1,0,0.1,0,0.2,0c0.1,0,0.1,0,0.2,0l1.4-0.9c0.1-0.1,0.1-0.2,0.1-0.3
		c0-0.7-0.4-0.9-0.7-0.9C6.2,9.6,5.8,9.4,5.5,8.1c2-0.8,3.4-0.9,4.1-0.9c0.1,0,0.2,0.1,0.3,0.1c0.1,0,0.2,0,0.3-0.1
		C10.5,7,10.6,6.5,10.3,5.6z M2.6,8.9C2.6,8.9,2.5,8.9,2.6,8.9C1.7,8.2,1.2,7.4,1,6.4c0,0,0-0.1,0-0.1c0.1-0.1,0.2-0.2,0.4-0.3
		C1.7,7.1,2.2,8,3,8.6C2.8,8.7,2.7,8.8,2.6,8.9z M6.4,10.3c0.2,0.1,0.3,0.1,0.3,0.2l-1.1,0.7C4.8,10.6,4.2,9.5,4,8.8
		c0.3-0.2,0.6-0.3,0.9-0.4C5.3,9.8,5.9,10.1,6.4,10.3z M3.6,8.3C2.7,7.7,2.2,6.8,1.9,5.7c2-1.5,3.1-3,3.7-3.9c0,0,0,0.1,0,0.1
		c0.2,0.5,0.4,1,0.7,1.6v0c0,0,0,0,0,0c0.2,0.3,0.3,0.6,0.5,0.9C7.1,4.7,7.3,5,7.5,5.3v0h0c0.4,0.5,0.8,1,1.1,1.3
		c0,0,0.1,0.1,0.1,0.1C7.6,6.8,5.8,7.2,3.6,8.3z M7.1,3.6c0.3,0,0.6,0.1,0.7,0.3C8,4.1,7.9,4.4,7.8,4.6C7.6,4.5,7.5,4.3,7.4,4.1
		C7.3,3.9,7.2,3.8,7.1,3.6z M9.8,6.7c0,0-0.1,0-0.1,0c0,0,0,0-0.1,0h0C9.3,6.5,8.8,6,8.1,5.2C8.5,4.7,8.6,4,8.3,3.5
		C8,3,7.4,2.8,6.8,3C6.3,2.1,6.1,1.4,6.1,1c0,0,0,0,0,0c0-0.1,0-0.1,0-0.1c0,0,0,0,0,0h0c0.3,0,1.3,0.9,2.4,2.6
		c1,1.6,1.3,2.8,1.3,3.2C9.9,6.7,9.9,6.7,9.8,6.7z"/>
	<path class="st0" d="M7.8,4.6C7.6,4.5,7.5,4.3,7.4,4.1C7.3,3.9,7.2,3.8,7.1,3.6c0.3,0,0.6,0.1,0.7,0.3C8,4.1,7.9,4.4,7.8,4.6z"/>
	<path d="M4.7,5.5L3.5,6.3c-0.1,0-0.1,0-0.2,0c-0.1,0-0.2-0.1-0.3-0.1C3,6,3,5.8,3.2,5.7c0,0,0,0,0,0L4.4,5c0.1-0.1,0.3,0,0.4,0.1
		c0,0,0,0,0,0C4.9,5.2,4.8,5.4,4.7,5.5z M5.3,6.5L4.1,7.2c-0.1,0-0.1,0-0.2,0c-0.1,0-0.2-0.1-0.3-0.1C3.6,7,3.6,6.8,3.8,6.7L5,6
		c0.1-0.1,0.3,0,0.4,0.1c0,0,0,0,0,0C5.5,6.2,5.4,6.4,5.3,6.5z M8.8,0.5L8.6,1.1c-0.1,0.2,0,0.3,0.2,0.4c0,0,0.1,0,0.1,0
		c0.1,0,0.2-0.1,0.3-0.2l0.2-0.6c0.1-0.2,0-0.3-0.2-0.4C9,0.3,8.9,0.3,8.8,0.5C8.8,0.5,8.8,0.5,8.8,0.5z M10.6,4.4l0.6,0.1h0
		c0.2,0,0.3-0.1,0.3-0.3c0-0.2-0.1-0.3-0.3-0.3l-0.6-0.1c-0.2,0-0.3,0.1-0.3,0.3C10.4,4.2,10.5,4.4,10.6,4.4z M10.6,2.1
		C10.5,2,10.4,1.9,10.2,2L9.9,2.2C9.7,2.3,9.7,2.5,9.8,2.6C9.8,2.7,9.9,2.8,10,2.8c0.1,0,0.1,0,0.2,0l0.4-0.2
		C10.7,2.4,10.7,2.2,10.6,2.1z"/>
</g>
</svg>
