<?xml version="1.0" encoding="utf-8"?>
<!-- Generator: Adobe Illustrator 23.0.6, SVG Export Plug-In . SVG Version: 6.00 Build 0)  -->
<svg version="1.1" id="Слой_1" xmlns="http://www.w3.org/2000/svg" xmlns:xlink="http://www.w3.org/1999/xlink" x="0px" y="0px"
	 viewBox="0 0 12 12" style="enable-background:new 0 0 12 12;" xml:space="preserve">
<style type="text/css">
	.st0{fill-rule:evenodd;clip-rule:evenodd;}
</style>
<path class="st0" d="M5.7,0.5c0,0.3-0.1,1.1-0.3,1.5C4.8,3.5,3.5,4.8,2,5.3C1.6,5.5,0.9,5.6,0.5,5.6H0.2l0,0.6
	C0.3,7.7,0.9,9,1.9,10.1c0.8,0.8,1.8,1.4,3,1.6c0.5,0.1,1.7,0.1,2.3,0c1.1-0.2,2.1-0.8,2.9-1.6c0.8-0.8,1.4-1.8,1.6-3
	c0.1-0.5,0.1-1.7,0-2.3c-0.5-2.3-2.2-4-4.5-4.5c-0.2,0-0.7-0.1-1-0.1l-0.6,0V0.5z M2.6,2.6L0.3,5h0.2c0.1,0,0.3,0,0.5-0.1
	c1.5-0.3,2.7-1.2,3.4-2.5c0.2-0.4,0.4-1,0.5-1.4C5,0.2,5.2,0,2.6,2.6z M7.4,3.9c0.1,0,0.7,1,1.4,2.1C10.2,8,10.2,8.1,10,8.3
	C9.9,8.4,9.8,8.4,6.5,8.4c-3.4,0-3.4,0-3.5-0.1C2.7,8.1,2.7,8,3.7,6.5C4.6,5,4.7,4.9,5,5C5,5,5.2,5.2,5.3,5.5
	c0.1,0.2,0.3,0.4,0.3,0.4c0,0,0.3-0.4,0.7-1S7,3.9,7,3.8C7.2,3.8,7.3,3.8,7.4,3.9z M6.6,5.6C6.3,6.1,6.1,6.5,6,6.5
	c0,0.1,0.5,0.9,0.6,1.1c0.1,0.1,0.2,0.1,1.3,0.1l1.2,0L8.2,6.3c-0.5-0.8-0.9-1.4-1-1.5C7.2,4.8,6.9,5.2,6.6,5.6z M4.3,6.8
	C4,7.3,3.8,7.7,3.8,7.7c0,0,0.5,0,1.1,0c0.9,0,1.1,0,1-0.1c0-0.1-1-1.6-1-1.6C4.8,6,4.6,6.4,4.3,6.8z"/>
</svg>
