<?xml version="1.0" encoding="utf-8"?>
<!-- Generator: Adobe Illustrator 23.0.6, SVG Export Plug-In . SVG Version: 6.00 Build 0)  -->
<svg version="1.1" id="Слой_1" xmlns="http://www.w3.org/2000/svg" xmlns:xlink="http://www.w3.org/1999/xlink" x="0px" y="0px"
	 viewBox="0 0 12 12" style="enable-background:new 0 0 12 12;" xml:space="preserve">
<g>
	<path d="M5.4,7.4L0.2,5v5.3c0,0.3,0.2,0.5,0.5,0.5h10.6c0.3,0,0.5-0.2,0.5-0.5V5L6.7,7.4H5.4z"/>
	<path d="M11.4,3.1H0.7c-0.3,0-0.5,0.2-0.5,0.4v0.7l5.4,2.4h1l5.3-2.4V3.5C11.8,3.3,11.7,3.1,11.4,3.1z M4.4,2
		c0-0.1,0.1-0.2,0.2-0.2h2.9c0.1,0,0.2,0.1,0.2,0.2v0.5h0.7V2c0-0.5-0.4-0.9-0.9-0.9H4.6C4.1,1.2,3.7,1.6,3.7,2v0.5h0.7L4.4,2L4.4,2
		z"/>
</g>
</svg>
