<?xml version="1.0" encoding="utf-8"?>
<!-- Generator: Adobe Illustrator 23.0.6, SVG Export Plug-In . SVG Version: 6.00 Build 0)  -->
<svg version="1.1" id="Слой_1" xmlns="http://www.w3.org/2000/svg" xmlns:xlink="http://www.w3.org/1999/xlink" x="0px" y="0px"
	 viewBox="0 0 12 12" style="enable-background:new 0 0 12 12;" xml:space="preserve">
<g>
	<path d="M11.2,4.5c0,0.1,0,0.3,0,0.4c0,0,0,0,0,0.1c-0.1,0.8-0.5,1.4-1.2,1.8C9.8,6.9,9.6,7,9.4,7.1c0,0.6,0,1.3,0,2
		c-2.3,0-4.5,0-6.7,0c0,0,0-0.1,0-0.1c0-0.6,0-1.2,0-1.8c0-0.1,0-0.1-0.1-0.2C1.3,6.7,0.6,5.4,0.8,4.2C1.1,2.9,2.5,2,3.8,2.4
		c0.1,0,0.1,0,0.1-0.1c0,0,0,0,0-0.1c0.5-0.9,1.6-1.3,2.6-1.1c0.7,0.2,1.1,0.5,1.5,1.1c0,0.1,0.1,0.1,0.2,0.1c0.3-0.1,0.6-0.1,0.9,0
		C10.1,2.5,10.7,3,11,3.9C11.1,4.1,11.2,4.3,11.2,4.5z"/>
	<path d="M8.8,10.9H3.2c-0.3,0-0.6-0.3-0.6-0.6v0c0-0.3,0.3-0.6,0.6-0.6h5.5c0.3,0,0.6,0.3,0.6,0.6v0C9.4,10.6,9.1,10.9,8.8,10.9z"
		/>
</g>
</svg>
