<?xml version="1.0" encoding="utf-8"?>
<!-- Generator: Adobe Illustrator 23.0.6, SVG Export Plug-In . SVG Version: 6.00 Build 0)  -->
<svg version="1.1" id="Слой_1" xmlns="http://www.w3.org/2000/svg" xmlns:xlink="http://www.w3.org/1999/xlink" x="0px" y="0px"
	 viewBox="0 0 12 12" style="enable-background:new 0 0 12 12;" xml:space="preserve">
<style type="text/css">
	.st0{fill:none;stroke:#000000;stroke-width:0.5;stroke-miterlimit:10;}
</style>
<g>
	<path class="st0" d="M1.9,9.9c-0.3-0.2-0.9,0-1-0.4c-0.1-0.3,0-0.6,0.2-0.8c0.2-0.2,0.6-0.2,0.8,0c0.1,0.1,0.3,0.1,0.4,0
		c0,0,0.1-0.1,0.1-0.1C2.8,8.3,3,8,2.8,7.5C2.7,7,2.8,6.4,3,5.8c0.4-1.6,1.2-3,2.3-4.3C6.3,0.3,8.1,0,9.6,0.8c2,1.1,2.4,3.9,0.8,5.6
		c-1,1-2.2,1.6-3.6,2.2C6.2,8.8,5.5,9,4.8,9C4.5,9,4.3,8.9,4,8.9c-0.2-0.1-0.4,0-0.6,0.2C3.4,9.2,3.3,9.3,3.2,9.4
		C3.1,9.6,3,9.7,3.1,10c0.2,0.2,0.1,0.6-0.2,0.8C2.7,11,2.4,11,2.2,10.9c-0.3-0.2-0.4-0.3-0.3-0.6C1.8,10.2,2,10.1,1.9,9.9z"/>
</g>
<path d="M9.8,2.6C9.7,2.7,9.7,2.8,9.6,2.8c-0.1,0-0.2,0-0.2,0c0,0-0.1-0.1-0.1-0.1C8.3,1.9,7,1.9,6.2,2.8C6,2.9,5.9,3,5.8,2.8
	C5.6,2.7,5.7,2.5,5.8,2.4c1-1,2.7-1,3.8,0C9.7,2.5,9.7,2.6,9.8,2.6z"/>
</svg>
