<?xml version="1.0" encoding="utf-8"?>
<!-- Generator: Adobe Illustrator 23.0.6, SVG Export Plug-In . SVG Version: 6.00 Build 0)  -->
<svg version="1.1" id="Слой_1" xmlns="http://www.w3.org/2000/svg" xmlns:xlink="http://www.w3.org/1999/xlink" x="0px" y="0px"
	 viewBox="0 0 217.2 241.5" style="enable-background:new 0 0 217.2 241.5;" xml:space="preserve">
<g id="UZTOse_1_">
	<g>
		<path d="M103.9,214.5c5,0,9.4-0.1,13.9,0c6.7,0.3,11.6,4.5,12.7,10.7c0.6,3.3-0.4,6-3.8,6.9c-3.2,0.9-5.5-0.8-6.2-4
			c-0.6-2.8-2.2-3.3-4.6-3.3c-7.7,0.1-15.4,0.1-23.1,0c-2.8-0.1-4.6,0.7-5.8,3.3c-1.5,3.3-3.9,5.5-7.7,3.4c-3.6-2-2.8-5-1.4-8.4
			c2.8-7,7.2-10.6,15.7-8.3c0-3.6,0.1-6.5-0.1-9.3c-0.1-0.8-1-2-1.8-2.2c-9.2-3.2-13.4-9.8-13.7-19.2C57.7,179,47.9,165.9,47.9,145
			c-23.3-2.8-32.7-19.5-39.1-38.9c-3-9.1,3.9-17.6,14-17.7c18.7-0.1,37.3,0,56,0c14.7,0,29.3,0,44,0c1.4,0,2.7,0,4.2,0
			c4.2-17,8.3-33.8,12.3-49.9c-1.2-3.5-3.2-6.9-3.4-10.3c-0.3-5.4,15.9-19.7,21.3-19.1c2.6,0.3,5.3,1.6,7.5,3.1
			c3,1.9,5.8,3.1,9.5,2.4c4.1-0.8,7.7,0.8,10.1,4.3c2.5,3.7,2.2,7.5,0.2,11.4c-3.3,6.4-3.3,6.4,3.6,8.8c5.2,1.8,10.5,3.7,15.7,5.5
			c3.3,1.1,5.9,3.3,5.3,6.6c-0.5,2.4-2.6,5.2-4.8,6.6c-3.9,2.5-8.2,4.2-12.6,5.8c-2.9,1.1-3.4,2.8-3.2,5.6c1,15.2,2,30.5,2.8,45.7
			c1.7,32.7-20.8,59.8-53.3,64.2c-4.7,0.6-9.4,1.5-14.2,2c-2.5,0.3-3.3,1.3-3.4,3.8c-0.2,9.4-4.7,15.6-13.7,18.7
			c-1.2,0.4-2.4,2.1-2.6,3.4C103.6,209,103.9,211.4,103.9,214.5z M77,98.7c-17.6,0-35.2,0-52.7,0c-5.4,0-6.6,1.9-4.6,6.9
			c0.9,2.3,2,4.5,2.9,6.8c5.2,14,14.8,22,30.1,22.4c4,0.1,5.8,2.4,5.8,6.3c0,3.1-0.1,6.2,0.1,9.2c0.6,12,9.8,21.9,21.8,23.2
			c7.7,0.9,8.1,1.3,8.1,9.2c0,8.1,2.9,10.9,10.8,10.9c7.8,0,10.6-2.7,10.7-10.5c0-1.5,0.1-3.1,0-4.6c-0.2-4.3,1.9-6.5,6.2-7
			c6.7-0.8,13.4-1.9,20.1-2.9c27.6-4,45.9-25.6,44.6-53.4c-1-21.7-2.5-43.4-3.8-65.1c-0.5-7.4-5.4-12.8-12.5-14
			c-7.8-1.4-15,3.3-17,11.4c-3.7,14.9-7.4,29.9-10.7,44.9c-1,4.6-3.4,6.3-8,6.2C111.5,98.6,94.2,98.7,77,98.7z M176.6,29.9
			c0.7-2.5,1.5-4.4,1.6-6.4c0-0.5-2.3-1.8-3.2-1.6c-6.1,1.5-10.8-1.1-15.4-4.4c-2.1-1.5-3.7-1.2-5.5,0.8c-2.7,2.9-5.7,5.5-8.8,7.8
			c-2.7,2-2.8,3.7-0.2,5.8C154.8,24.3,165,23.5,176.6,29.9z M187.9,57c4.4-2,8-3.7,12.6-5.9c-5-1.8-8.9-3.1-13.3-4.7
			C187.5,50.2,187.7,53.2,187.9,57z"/>
		<path d="M111.2,157.6c-15.8,0.6-26.5-5.2-31.4-20c-0.3-1-2.2-1.8-3.5-2.1c-11.7-2.6-20.4-9.1-25.8-19.8c-1.6-3.2-2.1-6.5,1.6-8.4
			c3.7-1.9,5.9,0.3,7.6,3.6c4.7,9.3,12.3,14.4,22.8,14.7c4.5,0.1,6.5,2,7,6.7c0.7,8.2,6.6,14.1,14.6,14.8c4.3,0.4,8.7,0.4,12.9-0.1
			c12-1.5,20.2-10.9,20.4-23c0-3.1-0.5-6.3,0.3-9.2c0.5-1.9,3-4.4,4.7-4.5c1.7-0.1,4.9,2.4,5,3.9c1.1,11.6,0.5,22.8-8,32.1
			C131.6,154.8,121.8,158.3,111.2,157.6z"/>
	</g>
</g>
</svg>
