<?xml version="1.0" encoding="utf-8"?>
<!-- Generator: Adobe Illustrator 23.0.6, SVG Export Plug-In . SVG Version: 6.00 Build 0)  -->
<svg version="1.1" id="Слой_1" xmlns="http://www.w3.org/2000/svg" xmlns:xlink="http://www.w3.org/1999/xlink" x="0px" y="0px"
	 viewBox="0 0 12 12" style="enable-background:new 0 0 12 12;" xml:space="preserve">
<style type="text/css">
	.st0{fill:#93BB3D;}
	.st1{fill-rule:evenodd;clip-rule:evenodd;}
	.st2{fill:none;stroke:#000000;stroke-miterlimit:10;}
</style>
<path d="M8.4,11.8h-6c-0.6,0-1.1-0.5-1.1-1.1V1.3c0-0.6,0.5-1.1,1.1-1.1h3c0.6,0,4.1,3.7,4.1,4.3v6.2C9.4,11.3,9,11.8,8.4,11.8z
	 M2.3,0.9C2.1,0.9,2,1.1,2,1.3v9.4C2,10.9,2.1,11,2.3,11h6c0.2,0,0.4-0.2,0.4-0.4V4.5C8.5,4,5.8,1.2,5.3,0.9H2.3z"/>
<path d="M8.8,4.8H5.8c-0.5,0-0.8-0.3-0.8-0.7V0.8h0.7v3.3c0,0,0.1,0,0.1,0h3.1V4.8z"/>
<g>
	<path class="st0" d="M10.3,9.7H5.8c-0.3,0-0.6-0.3-0.6-0.6V7.1c0-0.3,0.3-0.6,0.6-0.6h4.5c0.3,0,0.6,0.3,0.6,0.6v2.1
		C10.9,9.5,10.6,9.7,10.3,9.7z"/>
	<path d="M10.3,10.1H5.8c-0.5,0-1-0.4-1-1V7.1c0-0.5,0.4-1,1-1h4.5c0.5,0,1,0.4,1,1v2.1C11.3,9.7,10.8,10.1,10.3,10.1z M5.8,6.8
		c-0.1,0-0.3,0.1-0.3,0.3v2.1c0,0.1,0.1,0.3,0.3,0.3h4.5c0.1,0,0.3-0.1,0.3-0.3V7.1c0-0.1-0.1-0.3-0.3-0.3H5.8z"/>
</g>
<g>
	<path d="M6.3,8.6C6.3,8.6,6.3,8.6,6.3,8.6C6.3,8.6,6.3,8.5,6.3,8.6l-0.1-1c0,0,0,0,0-0.1c0,0,0,0,0.1,0c0.1,0,0.2,0,0.2,0
		c0.3,0,0.5,0.1,0.5,0.4c0,0.1,0,0.2-0.1,0.3C6.9,8.2,6.8,8.2,6.6,8.2c0,0-0.1,0-0.1,0c0,0,0,0,0,0v0.3c0,0,0,0,0,0.1
		C6.5,8.6,6.4,8.6,6.3,8.6L6.3,8.6z M6.5,7.7V8c0,0,0,0,0,0c0,0,0.1,0,0.1,0c0.1,0,0.1,0,0.2,0c0,0,0.1-0.1,0.1-0.1
		C6.8,7.8,6.7,7.7,6.5,7.7C6.6,7.7,6.5,7.7,6.5,7.7C6.5,7.7,6.5,7.7,6.5,7.7z"/>
	<path d="M7.3,8.6C7.3,8.6,7.3,8.6,7.3,8.6C7.2,8.6,7.2,8.5,7.3,8.6l-0.1-1c0,0,0,0,0-0.1c0,0,0,0,0.1,0c0.1,0,0.2,0,0.3,0
		c0.1,0,0.3,0,0.3,0.1C8,7.6,8,7.7,8,7.8C8,7.9,8,8,8,8c0,0.1-0.1,0.1-0.2,0.1c0,0,0,0,0,0c0,0,0,0,0,0c0,0,0.1,0.1,0.1,0.2L8,8.5
		c0,0,0,0,0,0.1c0,0,0,0,0,0H7.9c0,0,0,0-0.1,0c0,0,0,0,0-0.1L7.7,8.3c0,0,0-0.1-0.1-0.1c0,0-0.1,0-0.1,0H7.5c0,0,0,0,0,0v0.3
		c0,0,0,0,0,0.1C7.4,8.6,7.4,8.6,7.3,8.6L7.3,8.6z M7.5,7.7V8c0,0,0,0,0,0h0.1c0.1,0,0.1,0,0.2,0c0,0,0.1-0.1,0.1-0.1
		C7.8,7.7,7.7,7.7,7.5,7.7C7.5,7.7,7.5,7.7,7.5,7.7C7.5,7.7,7.5,7.7,7.5,7.7z"/>
	<path d="M9,8.5C8.9,8.6,8.8,8.6,8.6,8.6c-0.2,0-0.3,0-0.4-0.1C8.2,8.4,8.1,8.2,8.1,8.1c0-0.2,0-0.3,0.1-0.4
		c0.1-0.1,0.2-0.1,0.4-0.1c0.2,0,0.3,0,0.4,0.1c0.1,0.1,0.1,0.2,0.1,0.4C9.1,8.2,9.1,8.4,9,8.5z M8.9,8.1c0-0.2-0.1-0.3-0.2-0.3
		c-0.2,0-0.2,0.1-0.2,0.3c0,0.2,0.1,0.3,0.2,0.3C8.8,8.4,8.9,8.3,8.9,8.1z"/>
	<path d="M9.3,8.6C9.3,8.6,9.3,8.6,9.3,8.6C9.2,8.5,9.2,8.5,9.2,8.5V8.4c0,0,0,0,0,0c0,0,0,0,0.1,0c0.1,0,0.1,0,0.2,0
		c0.1,0,0.1,0,0.1-0.1c0,0,0-0.1,0-0.2V7.6c0,0,0,0,0-0.1c0,0,0,0,0.1,0h0.1c0,0,0,0,0.1,0c0,0,0,0,0,0.1v0.6c0,0.1,0,0.3-0.1,0.3
		C9.8,8.6,9.7,8.6,9.5,8.6C9.4,8.6,9.4,8.6,9.3,8.6z"/>
</g>
<path class="st1" d="M38.5-0.6c-0.4,0.1-0.7,0.5-0.8,0.9c0,0.1,0,1.8,0,5.6l0,5.4l0.1,0.1c0.1,0.3,0.4,0.6,0.7,0.7l0.1,0.1l4.5,0
	c5.1,0,4.7,0,4.9-0.2c0.2-0.2,0.2,0.4,0.2-6.2c0-6.6,0-6-0.2-6.2c-0.2-0.2,0.2-0.2-4.9-0.2C39.2-0.7,38.6-0.7,38.5-0.6z M47.6-0.1
	L47.6-0.1l0.1,4.9v4.9l-0.1,0.1l-0.1,0.1h-4.2h-4.2v-2v-2L39,5.8C39,5.7,39,5.7,38.9,5.7c-0.1,0-0.1,0-0.2,0.1l-0.1,0.1v2v2l-0.1,0
	c-0.1,0-0.2,0-0.3,0.1L38.1,10l0-4.9l0-4.9l0.1-0.1c0.1-0.2,0.3-0.3,0.4-0.3c0,0,0,0.6,0,2c0,2.1,0,2.1,0.1,2.1c0.1,0,0.2,0,0.3,0
	c0.1-0.1,0.1,0,0.1-2.1v-2h4.2L47.6-0.1L47.6-0.1z M43,1.5c-0.3,0.1-0.5,0.2-0.7,0.4l-0.2,0.2l-0.1,0c-0.2-0.1-0.7-0.1-0.8,0
	c-0.2,0.1-0.4,0.2-0.6,0.4c-0.5,0.5-0.6,1.1-0.3,1.7c0.1,0.2,0.4,0.5,0.6,0.6l0.2,0.1l0,1.5c0,1.4,0,1.5,0.1,1.6
	c0,0.1,0.1,0.1,0.1,0.2c0.1,0,0.1,0.1,2.1,0.1c2.3,0,2.2,0,2.3-0.2l0.1-0.1l0-1.5l0-1.5l0.2-0.1c0.2-0.1,0.5-0.4,0.6-0.6
	c0.4-0.8,0-1.8-0.9-2.1c-0.2-0.1-0.7-0.1-0.8,0l-0.1,0l-0.2-0.2C44,1.5,43.6,1.4,43,1.5z M43.8,2.1c0.2,0.1,0.4,0.3,0.5,0.4
	c0,0.1,0.1,0.1,0.1,0.2c0.1,0.1,0.2,0,0.3,0c0.1-0.1,0.4-0.1,0.6-0.1c0.4,0,0.7,0.2,0.8,0.6c0.1,0.2,0.1,0.2,0.1,0.4
	c0,0.2,0,0.3-0.1,0.4c-0.1,0.3-0.4,0.5-0.7,0.5c-0.1,0-0.1,0.1-0.2,0.1c0,0.1-0.1,0.1-0.1,1.1v1h-1.8h-1.8v-1c0-1,0-1-0.1-1.1
	c0,0-0.1-0.1-0.2-0.1c-0.3-0.1-0.5-0.3-0.7-0.5c-0.1-0.2-0.1-0.2-0.1-0.4c0-0.2,0-0.3,0.1-0.4c0.2-0.3,0.5-0.5,0.8-0.6
	c0.2,0,0.4,0,0.6,0.1c0.1,0.1,0.2,0.1,0.3,0c0,0,0.1-0.1,0.1-0.2c0.1-0.2,0.4-0.4,0.6-0.5C43.3,2,43.6,2,43.8,2.1z M38.8,4.6
	c-0.1,0-0.2,0.1-0.2,0.2c0,0.1,0.1,0.2,0.1,0.2c0.1,0,0.2,0,0.3,0c0.1,0,0.1-0.2,0.1-0.2C39.1,4.7,38.9,4.5,38.8,4.6z M45.2,7.4
	l0,0.2h-1.8h-1.8V7.4c0-0.1,0-0.2,0-0.3c0,0,0.8,0,1.8,0l1.8,0L45.2,7.4z M47.6,10.9v0.6l-0.1,0.1c-0.1,0.1-0.1,0.1-0.3,0.1h-0.2V11
	v-0.6l0.2,0c0.1,0,0.2,0,0.3,0C47.6,10.3,47.6,10.6,47.6,10.9z M46.6,11v0.7l-4,0l-4,0l-0.1-0.1c-0.5-0.2-0.5-0.9,0-1.1
	c0.1,0,0.2-0.1,0.2-0.1c0.1,0,1.9,0,4,0l3.9,0V11z"/>
<path class="st1" d="M29.8,16.7c-0.1,0-0.2,0.1-0.3,0.2l-0.1,0.1l0,0c-0.1,0-0.3,0-0.4,0c-0.1,0-0.2,0.1-0.3,0.2
	c-0.2,0.2-0.2,0.5-0.1,0.7c0.1,0.1,0.2,0.2,0.3,0.3l0.1,0l0,0.6c0,0.6,0,0.6,0,0.7c0,0,0,0.1,0.1,0.1c0,0,0,0,0.9,0c1,0,0.9,0,1-0.1
	l0,0l0-0.6l0-0.6l0.1,0c0.1-0.1,0.2-0.2,0.3-0.3c0.2-0.3,0-0.7-0.4-0.9c-0.1,0-0.3,0-0.4,0l0,0l-0.1-0.1
	C30.3,16.7,30.1,16.6,29.8,16.7z M30.2,16.9c0.1,0,0.2,0.1,0.2,0.2c0,0,0,0.1,0.1,0.1c0,0,0.1,0,0.1,0c0.1,0,0.2-0.1,0.2-0.1
	c0.2,0,0.3,0.1,0.3,0.2c0,0.1,0,0.1,0,0.2c0,0.1,0,0.1,0,0.2c-0.1,0.1-0.2,0.2-0.3,0.2c0,0-0.1,0-0.1,0c0,0,0,0,0,0.5v0.4H30h-0.8
	v-0.4c0-0.4,0-0.4,0-0.5c0,0,0,0-0.1,0c-0.1,0-0.2-0.1-0.3-0.2c0-0.1,0-0.1,0-0.2c0-0.1,0-0.1,0-0.2c0.1-0.1,0.2-0.2,0.3-0.2
	c0.1,0,0.2,0,0.2,0.1c0,0,0.1,0,0.1,0c0,0,0,0,0.1-0.1c0-0.1,0.2-0.2,0.3-0.2C30,16.8,30.1,16.9,30.2,16.9z M30.7,19.1l0,0.1H30
	h-0.8v-0.1c0-0.1,0-0.1,0-0.1c0,0,0.3,0,0.8,0l0.8,0L30.7,19.1z"/>
<rect x="22.3" y="0.5" class="st2" width="7.7" height="10.8"/>
</svg>
