<?xml version="1.0" encoding="utf-8"?>
<!-- Generator: Adobe Illustrator 23.0.6, SVG Export Plug-In . SVG Version: 6.00 Build 0)  -->
<svg version="1.1" id="Слой_1" xmlns="http://www.w3.org/2000/svg" xmlns:xlink="http://www.w3.org/1999/xlink" x="0px" y="0px"
	 viewBox="0 0 12 12" style="enable-background:new 0 0 12 12;" xml:space="preserve">
<path d="M11.5,1.8H0.5c-0.1,0-0.2,0.1-0.2,0.2v8.1c0,0.1,0.1,0.2,0.2,0.2h10.9c0.1,0,0.2-0.1,0.2-0.2V1.9
	C11.6,1.8,11.6,1.8,11.5,1.8z M11.3,9.9H0.7V2.1h10.6V9.9z"/>
<path d="M1.2,8.8c0.3,0,0.5,0.2,0.5,0.5c0,0.1,0.1,0.2,0.2,0.2h8.1c0.1,0,0.2-0.1,0.2-0.2c0-0.3,0.2-0.5,0.5-0.5
	c0.1,0,0.2-0.1,0.2-0.2V3.4c0-0.1-0.1-0.2-0.2-0.2c-0.3,0-0.5-0.2-0.5-0.5c0-0.1-0.1-0.2-0.2-0.2H1.9c-0.1,0-0.2,0.1-0.2,0.2
	c0,0.3-0.2,0.5-0.5,0.5c-0.1,0-0.2,0.1-0.2,0.2v5.3C1.1,8.7,1.1,8.8,1.2,8.8z M1.4,3.5C1.8,3.4,2,3.2,2.1,2.8h7.8
	c0.1,0.3,0.3,0.6,0.7,0.7v5C10.2,8.6,10,8.8,9.9,9.2H2.1C2,8.8,1.8,8.6,1.4,8.5C1.4,8.5,1.4,3.5,1.4,3.5z"/>
<path d="M4.2,4.8h3.5c0.1,0,0.2-0.1,0.2-0.2V3.5c0-0.1-0.1-0.2-0.2-0.2H4.2c-0.1,0-0.2,0.1-0.2,0.2v1.1C4.1,4.7,4.1,4.8,4.2,4.8z
	 M4.4,3.7h3.2v0.7H4.4V3.7z M3.5,5.8h4.9c0.1,0,0.2-0.1,0.2-0.2c0-0.1-0.1-0.2-0.2-0.2H3.5c-0.1,0-0.2,0.1-0.2,0.2
	C3.4,5.7,3.4,5.8,3.5,5.8z M2.3,6.5h7.4c0.1,0,0.2-0.1,0.2-0.2c0-0.1-0.1-0.2-0.2-0.2H2.3c-0.1,0-0.2,0.1-0.2,0.2
	C2.1,6.5,2.2,6.5,2.3,6.5z M2.3,7.2h7.4c0.1,0,0.2-0.1,0.2-0.2c0-0.1-0.1-0.2-0.2-0.2H2.3C2.2,6.9,2.1,7,2.1,7.1
	C2.1,7.2,2.2,7.2,2.3,7.2z M2.3,8.6h2.1c0.1,0,0.2-0.1,0.2-0.2c0-0.1-0.1-0.2-0.2-0.2H2.3c-0.1,0-0.2,0.1-0.2,0.2
	C2.1,8.6,2.2,8.6,2.3,8.6z M9.4,7.9C9.2,7.9,9.1,8,9,8.1C8.9,8,8.8,7.9,8.6,7.9c-0.1,0-0.2,0-0.3,0.1C8.2,7.9,8,7.8,7.8,7.8
	c-0.4,0-0.7,0.3-0.7,0.7c0,0.1,0.1,0.2,0.2,0.2s0.2-0.1,0.2-0.2c0-0.2,0.2-0.4,0.4-0.4c0.2,0,0.4,0.2,0.4,0.4c0,0.1,0.1,0.2,0.2,0.2
	c0.1,0,0.2-0.1,0.2-0.2c0-0.1,0.1-0.2,0.2-0.2c0.1,0,0.2,0.1,0.2,0.2c0,0.1,0.1,0.2,0.2,0.2c0.1,0,0.2-0.1,0.2-0.2
	c0-0.1,0.1-0.2,0.2-0.2s0.2,0.1,0.2,0.2c0,0.1,0.1,0.2,0.2,0.2c0.1,0,0.2-0.1,0.2-0.2C9.9,8.2,9.6,7.9,9.4,7.9z"/>
</svg>
