<svg width="513" height="512" viewBox="0 0 513 512" fill="none" xmlns="http://www.w3.org/2000/svg">
<path fill-rule="evenodd" clip-rule="evenodd" d="M144.276 1.39419C133.785 4.67219 125.751 11.9732 121.748 21.8642L119.49 27.4432V137.193V246.943H89.759H60.028L59.369 244.193C58.155 239.132 55.966 235.956 51.786 233.189C47.658 230.456 47.555 230.443 30.064 230.443C10.303 230.443 8.366 230.962 3.292 237.614L0.49 241.286L0.245 310.365L0 379.443L2.245 383.349C5.02 388.177 8.46 390.801 13.567 391.986C19.043 393.255 39.85 393.166 46.004 391.847C52.244 390.508 57.423 385.764 58.988 379.95C59.582 377.746 60.612 375.944 61.279 375.944C68.937 375.953 104.262 385.118 107.259 387.874C107.683 388.263 107.345 390.52 106.509 392.888C99.899 411.624 113.817 431.894 133.496 432.192L137.94 432.259L139.439 437.415C143.066 449.891 154.829 458.917 167.49 458.939L171.49 458.946L173.285 465.055C176.651 476.508 188.023 484.943 200.097 484.943H204.848L206.393 490.257C211.452 507.658 230.6 516.517 247.243 509.155C251.839 507.122 256.179 503.254 262.522 495.538L266.553 490.633L275.818 498.792C286.951 508.594 291.472 511.051 299.573 511.702C314.737 512.919 328.151 502.778 331.082 487.883L332.207 482.16L337.87 481.046C349.297 478.798 358.794 469.353 361.164 457.879L362.349 452.142L368.689 450.577C381.561 447.401 389.597 438.714 391.845 425.545C392.522 421.579 392.678 421.441 397.215 420.792C402.981 419.967 411.295 415.552 414.733 411.489C416.15 409.814 418.417 406.035 419.77 403.091C421.927 398.398 422.176 396.704 421.789 389.331L421.348 380.924L425.419 379.817C431.74 378.098 444.094 376.016 448.201 375.978C451.696 375.945 451.976 376.177 452.992 379.95C454.557 385.764 459.736 390.508 465.976 391.847C472.13 393.166 492.937 393.255 498.413 391.986C503.819 390.732 507.09 388.108 509.759 382.884L512.029 378.443L511.759 309.865L511.49 241.286L508.688 237.614C503.614 230.962 501.677 230.443 481.916 230.443C464.425 230.443 464.322 230.456 460.194 233.189C456.014 235.956 453.825 239.132 452.611 244.193L451.952 246.943H422.221H392.49V137.193V27.4432L390.26 21.9432C386.165 11.8422 378.254 4.58419 368.03 1.54819C363.211 0.117193 351.049 -0.0498067 255.558 0.0101933C169.948 0.0631933 147.645 0.341193 144.276 1.39419ZM195.996 55.1932C195.999 78.4192 196.407 94.9042 197.034 97.1622C199.126 104.695 207.236 110.899 214.99 110.899C219.566 110.899 223.585 108.981 240.792 98.5842C248.658 93.8322 255.497 89.9432 255.99 89.9432C256.483 89.9432 263.322 93.8322 271.188 98.5842C288.395 108.981 292.414 110.899 296.99 110.899C304.744 110.899 312.854 104.695 314.946 97.1622C315.573 94.9042 315.981 78.4192 315.984 55.1932L315.99 16.9432L338.74 16.9652C364.331 16.9902 367.519 17.6702 372.089 24.0762L374.49 27.4432L374.778 133.943C374.937 192.518 374.804 241.906 374.483 243.693L373.899 246.943H362.264H350.63L321.06 232.069C304.796 223.889 289.015 216.378 285.99 215.378C277.616 212.611 265.383 213.008 256.317 216.342L249.144 218.981L241.817 216.553C237.787 215.218 233.59 213.967 232.49 213.774C230.655 213.451 230.449 212.435 229.99 201.433C229.41 187.52 228.066 184.61 220.538 180.966C216.294 178.912 214.981 178.831 190.719 179.13L165.338 179.443L161.32 182.104C154.732 186.467 153.99 189.183 153.99 208.943C153.99 228.659 154.738 231.425 161.237 235.725L165.172 238.329L156.831 242.586C150.323 245.907 147.362 246.854 143.357 246.893C138.857 246.937 138.149 246.665 137.62 244.693C137.289 243.455 137.011 194.285 137.004 135.425L136.99 28.4072L139.59 24.5822C144.294 17.6592 147.248 16.9902 173.24 16.9652L195.99 16.9432L195.996 55.1932ZM298.99 54.8842C298.99 78.8672 298.625 93.0502 297.999 93.4372C297.454 93.7742 288.332 88.8512 277.727 82.4962C267.123 76.1422 257.408 70.9432 256.138 70.9432C254.869 70.9432 245.12 76.1622 234.474 82.5412C223.828 88.9212 214.639 93.8442 214.054 93.4822C213.332 93.0372 212.99 80.6182 212.99 54.8842V16.9432H255.99H298.99V54.8842ZM212.99 205.943C212.99 214.248 212.731 215.943 211.461 215.943C210.621 215.943 207.259 217.293 203.99 218.943C198.26 221.836 197.563 221.943 184.519 221.943H170.99V208.943V195.943H191.99H212.99V205.943ZM233.388 231.778C233.672 232.237 222.83 244.275 209.295 258.528C181.254 288.057 179.506 290.635 179.53 302.443C179.564 319.497 192.356 332.251 209.526 332.348C220.574 332.41 224.192 330.108 247.99 307.869C259.265 297.332 269.691 287.589 271.16 286.217L273.829 283.723L310.609 311.471C366.73 353.813 398.517 378.983 402.893 384.546C405.452 387.8 405.666 393.99 403.354 397.903C399.434 404.54 391.103 405.849 383.89 400.961C378.472 397.29 376.025 397.201 372.067 400.532C368.037 403.922 368.02 407.957 372.008 413.843C380.98 427.085 366.866 440.011 353.27 431.005C348.018 427.526 347.004 427.367 343.062 429.406C338.167 431.937 337.495 438.116 341.538 443.417C347.143 450.765 345.205 459.633 337.223 463.164C332.169 465.4 329.328 465.023 323.761 461.382C313.468 454.648 304.695 463.421 311.429 473.714C315.07 479.281 315.447 482.122 313.211 487.176C311.831 490.295 310.224 492.079 307.724 493.265C300.722 496.588 297.763 495.455 285.644 484.817L276.355 476.664L277.726 471.553C282.008 455.584 270.775 437.842 254.646 435.1L250.49 434.394L249.922 427.817C248.765 414.423 239.396 404.629 224.74 401.493C222.257 400.962 221.99 400.487 221.99 396.602C221.99 381.69 208.812 368.703 193.49 368.516C190.19 368.476 186.338 368.768 184.93 369.164C182.668 369.802 182.228 369.49 181.138 366.475C179.186 361.076 171.711 353.504 165.769 350.905C157.643 347.35 149.079 347.64 140.727 351.752C135.136 354.504 133.08 356.346 126.591 364.414L118.996 373.856L112.243 371.292C98.077 365.915 78.728 360.969 65.74 359.405L59.99 358.713V311.884V265.055L105.392 264.749L150.795 264.443L184.482 247.693L218.169 230.943H225.52C229.564 230.943 233.104 231.319 233.388 231.778ZM314.741 247.943L347.49 264.443L399.74 264.75L451.99 265.057V312V358.943H447.666C441.759 358.943 426.11 361.7 416.859 364.371L409.229 366.574L396.359 356.124C368.885 333.815 287.135 271.863 281.029 268.723C276.352 266.318 271.138 266.484 266.222 269.193C263.976 270.431 251.98 280.893 239.562 292.443C227.145 303.993 215.555 314.04 213.806 314.77C204.191 318.783 193.783 308.553 197.23 298.478C198.111 295.904 206.729 286.099 225.883 265.877C258.32 231.632 259.771 230.578 273.741 231.122L281.991 231.443L314.741 247.943ZM42.747 311.193L43.005 374.943H29.997H16.99V311.61C16.99 276.776 17.303 247.963 17.686 247.58C18.069 247.198 23.806 247.01 30.436 247.164L42.49 247.443L42.747 311.193ZM494.747 311.193L495.005 374.943H481.997H468.99V311.61C468.99 276.776 469.303 247.963 469.686 247.58C470.069 247.198 475.806 247.01 482.436 247.164L494.49 247.443L494.747 311.193ZM157.663 365.929C160.137 365.958 164.989 371.225 166 374.979C166.808 377.983 166.722 379.648 165.622 382.282C163.711 386.856 144.654 410.99 141.218 413.188C135.585 416.791 126.421 414.611 123.507 408.976C120.537 403.233 121.467 398.748 127.181 391.253C144.322 368.768 149.21 364.146 154.49 365.429C155.59 365.697 157.018 365.922 157.663 365.929ZM200.566 389.194C204.834 393.104 206.1 398.906 203.695 403.53C200.68 409.328 176.843 438.477 173.713 440.193C171.957 441.155 169.118 441.943 167.403 441.943C160.347 441.943 154.003 433.915 155.386 426.736C156.128 422.885 181.324 390.442 185.705 387.698C187.237 386.739 190.409 385.951 192.755 385.948C196.176 385.944 197.721 386.586 200.566 389.194ZM225.354 419.322C230.416 421.437 232.99 425.371 232.99 430.993C232.99 435.216 232.379 436.576 227.74 442.673C210.131 465.821 207.93 467.943 201.536 467.943C194.06 467.943 188.99 462.885 188.99 455.427C188.99 450.671 189.52 449.786 201.208 435.038C211.452 422.111 214.017 419.533 217.49 418.671C220.929 417.818 221.959 417.903 225.354 419.322ZM256.847 454.476C260.367 457.438 262.404 462.78 261.531 466.757C260.673 470.662 244.663 491.049 240.724 493.252C236.958 495.358 231.282 495.019 227.368 492.455C224.025 490.265 221.646 484.451 222.341 480.169C222.921 476.595 231.246 464.922 239.056 456.731C243.344 452.235 243.933 451.943 248.729 451.943C252.736 451.943 254.485 452.489 256.847 454.476Z" fill="black"/>
</svg>
