<?xml version="1.0" encoding="utf-8"?>
<!-- Generator: Adobe Illustrator 23.0.6, SVG Export Plug-In . SVG Version: 6.00 Build 0)  -->
<svg version="1.1" id="Слой_1" xmlns="http://www.w3.org/2000/svg" xmlns:xlink="http://www.w3.org/1999/xlink" x="0px" y="0px"
	 viewBox="0 0 12 12" style="enable-background:new 0 0 12 12;" xml:space="preserve">
<g>
	<path d="M11.6,10.6C11.6,10.6,11.5,10.6,11.6,10.6L9.1,7.7l0,0c0.9-1.4,1-3.1,0.4-4.6L8.3,4c0.4,1.2,0.1,2.6-0.8,3.5
		C6.1,8.8,4,8.8,2.6,7.5S1.3,4,2.6,2.6c1.2-1.2,3.2-1.3,4.6-0.3l1.1-0.8C6.5-0.2,3.5-0.2,1.7,1.6l0,0c-1.9,1.9-1.9,4.9,0,6.8
		c1.6,1.6,4.1,1.9,6,0.6l0,0l2.9,2.5c0,0,0,0,0,0c0.3,0.2,0.6,0.2,0.9,0l0,0l0,0l0,0C11.8,11.3,11.8,10.9,11.6,10.6z"/>
	<path d="M9.4,1.5L7,3.2l-1.4,1C5.4,4.3,5.4,4.4,5.4,4.5L5.3,5.8L3.6,4C3.5,3.9,3.4,3.9,3.2,3.9L2.6,4C2.5,4.2,2.4,4.5,2.4,4.8
		l0.7-0.1L5.3,7c0.1,0.1,0.2,0.1,0.3,0.1c0,0,0.1,0,0.1,0C5.9,7.1,6,6.9,6,6.8l0.1-2l1.3-0.9l2.4-1.7l0.9-0.7L11,1.9
		c0.1,0.1,0.2,0.1,0.3,0l0.4-1.4c0-0.1,0-0.2-0.1-0.2l-1.5-0.1C10,0.2,9.9,0.4,10,0.5l0.3,0.4l0,0L9.4,1.5z"/>
</g>
</svg>
