<?xml version="1.0" encoding="utf-8"?>
<!-- Generator: Adobe Illustrator 23.0.6, SVG Export Plug-In . SVG Version: 6.00 Build 0)  -->
<svg version="1.1" id="Слой_1" xmlns="http://www.w3.org/2000/svg" xmlns:xlink="http://www.w3.org/1999/xlink" x="0px" y="0px"
	 viewBox="0 0 64 64" style="enable-background:new 0 0 64 64;" xml:space="preserve">
<path d="M6.6,3C5.1,3,3.9,4.2,3.9,5.7V60c0,0.6,0.4,1,1,1l0,0h8.1c0.4,0,0.8-0.2,0.9-0.6l2.3-5.1h32.6l2.3,5.1
	c0.2,0.4,0.5,0.6,0.9,0.6H60c0.6,0,1-0.4,1-1V5.7C61,4.2,59.8,3,58.3,3l0,0L6.6,3z M59,53.3H5.9V16.8H59V53.3z M12.3,59H5.9v-3.7
	h8.1L12.3,59z M59,59h-6.4l-1.6-3.7H59L59,59z M59,5.7v9.1H5.9V5.7C5.9,5.3,6.2,5,6.6,5h51.7C58.7,5,59,5.3,59,5.7
	C59,5.7,59,5.7,59,5.7z M0,0"/>
<rect x="10.9" y="8.9" width="11.6" height="2"/>
<rect x="45.5" y="25.5" transform="matrix(0.7072 -0.707 0.707 0.7072 -6.5626 41.2416)" width="2" height="6.1"/>
<rect x="41.7" y="27" transform="matrix(0.7071 -0.7071 0.7071 0.7071 -10.3824 39.6648)" width="2" height="10.8"/>
</svg>
