<?xml version="1.0" encoding="utf-8"?>
<!-- Generator: Adobe Illustrator 23.0.6, SVG Export Plug-In . SVG Version: 6.00 Build 0)  -->
<svg version="1.1" id="Слой_1" xmlns="http://www.w3.org/2000/svg" xmlns:xlink="http://www.w3.org/1999/xlink" x="0px" y="0px"
	 viewBox="0 0 12 12" style="enable-background:new 0 0 12 12;" xml:space="preserve">
<style type="text/css">
	.st0{fill:none;}
</style>
<g>
	<rect x="0" y="0.3" class="st0" width="12" height="11.5"/>
	<path d="M5.6,9.9c0,0.2-0.3,0.3-0.5,0.3c0,0,0,0,0,0L3.8,9.8c-0.1,0-0.2-0.1-0.3-0.2L2.4,8.8c-0.2-0.1-0.2-0.4,0-0.5
		c0.1-0.1,0.4-0.2,0.5,0l1.1,0.9l1.4,0.3C5.5,9.5,5.7,9.7,5.6,9.9C5.6,9.9,5.6,9.9,5.6,9.9z M11.8,5.6C11.8,5.8,11.6,6,11.4,6
		l-1.1,0.5L9.7,7.3c0,0,0,0,0,0c0,0,0,0,0,0c0,0,0,0,0,0L7.9,9C7.8,9.2,7.6,9.2,7.4,9.2c-0.1,0-0.1,0-0.2,0L4.5,8.6
		c-0.1,0-0.2-0.1-0.3-0.1L1.7,6.5L0.6,6C0.2,5.8,0,5.4,0.2,5c0,0,0,0,0,0l1.2-2.1c0.2-0.3,0.6-0.5,1-0.3l1,0.5l2.3-0.6
		c0.2,0,0.4,0,0.5,0l1.5,0.7h0.8l1.1-0.5c0.4-0.2,0.8,0,1,0.3l1.2,2.1C11.9,5.2,11.9,5.4,11.8,5.6z M8.8,7.2l-1.5-1L6.9,6.4
		c-0.7,0.5-1.6,0.5-2.2,0L4.4,6.2C4.1,6,4,5.5,4.3,5.2c0,0,0-0.1,0.1-0.1l1.8-1.8c0,0,0.1,0,0.1-0.1L5.9,3.2L3.6,3.8L2.4,6.1
		l2.3,1.7l2.7,0.7L8.8,7.2z M9.7,6.2L8.4,3.9H7.7l0,0c0,0,0,0,0,0h-1L4.9,5.6l0.3,0.2c0.4,0.3,0.9,0.3,1.3,0l0.6-0.4
		c0.1-0.1,0.3-0.1,0.4,0l1.8,1.2L9.7,6.2z"/>
</g>
</svg>
