<?xml version="1.0" encoding="utf-8"?>
<!-- Generator: Adobe Illustrator 23.0.6, SVG Export Plug-In . SVG Version: 6.00 Build 0)  -->
<svg version="1.1" id="Слой_1" xmlns="http://www.w3.org/2000/svg" xmlns:xlink="http://www.w3.org/1999/xlink" x="0px" y="0px"
	 viewBox="0 0 12 12" style="enable-background:new 0 0 12 12;" xml:space="preserve">
<g>
	<path d="M7.4,0.6h-6c-0.7,0-1.2,0.6-1.2,1.3v6.6c0,0.1,0,0.1,0.1,0.2l2.7,2.7c0,0,0.1,0.1,0.2,0.1h4.3c0.7,0,1.2-0.6,1.2-1.3V1.8
		C8.6,1.1,8.1,0.6,7.4,0.6z M2.8,10.6L1,8.7h1.6c0.1,0,0.3,0.1,0.3,0.2V10.6z M8.1,10.2c0,0.4-0.3,0.7-0.7,0.8c0,0,0,0,0,0H3.3v-2
		c0-0.4-0.3-0.7-0.8-0.7H0.7V1.8c0-0.4,0.3-0.7,0.7-0.8h6c0.4,0,0.7,0.3,0.7,0.7L8.1,10.2L8.1,10.2z"/>
	<path d="M6.8,3.8H2.1C2,3.8,1.8,3.9,1.8,4.1c0,0.1,0.1,0.2,0.2,0.2h4.7c0.1,0,0.2-0.1,0.2-0.2C7.1,3.9,7,3.8,6.8,3.8z"/>
	<path d="M6.8,5.3H2.1C2,5.3,1.8,5.4,1.8,5.6c0,0.1,0.1,0.2,0.2,0.2h4.7c0.1,0,0.2-0.1,0.2-0.2C7.1,5.4,7,5.3,6.8,5.3z"/>
	<path d="M6.8,6.8H2.1C2,6.8,1.8,6.9,1.8,7c0,0.1,0.1,0.2,0.2,0.2h4.7C7,7.3,7.1,7.2,7.1,7C7.1,6.9,7,6.8,6.8,6.8z"/>
	<path d="M2.1,2.9h2.2c0.1,0,0.2-0.1,0.2-0.2S4.4,2.4,4.3,2.4H2.1C2,2.4,1.8,2.5,1.8,2.7S2,2.9,2.1,2.9z"/>
	<path d="M10.7,0.8c-0.6,0-1.1,0.5-1.1,1.1l0,7.5c0,0,0,0.1,0,0.1l0.9,1.7c0.1,0.1,0.2,0.2,0.3,0.1c0,0,0.1-0.1,0.1-0.1l0.9-1.7
		c0,0,0-0.1,0-0.1l0-7.5C11.8,1.3,11.3,0.8,10.7,0.8z M11.3,3.3h-1.2l0-0.2h1.2L11.3,3.3z M11.3,3.8l0,5.4h-1.2l0-5.4H11.3z
		 M10.7,1.3c0.3,0,0.6,0.3,0.6,0.6l0,0.7h-1.2l0-0.7C10.1,1.6,10.4,1.3,10.7,1.3z M10.7,10.6l-0.5-0.9h0.9L10.7,10.6z"/>
</g>
</svg>
