<?xml version="1.0" encoding="utf-8"?>
<!-- Generator: Adobe Illustrator 23.0.6, SVG Export Plug-In . SVG Version: 6.00 Build 0)  -->
<svg version="1.1" id="Слой_1" xmlns="http://www.w3.org/2000/svg" xmlns:xlink="http://www.w3.org/1999/xlink" x="0px" y="0px"
	 viewBox="0 0 12 12" style="enable-background:new 0 0 12 12;" xml:space="preserve">
<g id="ZfBlEB_1_">
	<g>
		<path d="M10.3,8.3c0,0.6,0,1.1,0,1.7c0,1-0.7,1.7-1.7,1.7c-1.6,0-3.3,0-4.9,0C2.7,11.7,2,11,2,10c0-1.1,0-2.2,0-3.3
			c0-0.1,0-0.1,0-0.2c2.8,0,5.5,0,8.3,0L10.3,8.3z M2.7,7.3c0,0,0,0.1,0,0.1c0,0.9,0,1.9,0,2.8c0,0.4,0.4,0.8,0.9,0.8
			c1.7,0,3.4,0,5.1,0c0.5,0,0.9-0.4,0.9-0.9c0-0.3,0-0.5,0-0.8c0-0.7,0-1.4,0-2.1C7.3,7.3,5,7.3,2.7,7.3z"/>
		<path d="M3.4,4.9c0.1-0.3,0.2-0.5,0.4-0.8c0.2-0.4,0.3-0.6,0-1C3.4,2.5,3.4,2,3.8,1.3C3.9,1.1,4,1,4,0.8c0-0.2,0.2-0.4,0.4-0.4
			c0.3,0,0.4,0.2,0.3,0.4C4.7,1.2,4.6,1.5,4.4,1.7c-0.2,0.4-0.3,0.6,0,1c0.4,0.7,0.4,1.2,0,1.8C4.4,4.7,4.3,4.9,4.3,5
			c0,0.2-0.2,0.4-0.4,0.4C3.6,5.4,3.5,5.2,3.4,4.9z"/>
		<path d="M6.8,0.9C6.6,1.2,6.5,1.4,6.4,1.7c-0.3,0.4-0.3,0.6,0,1.1c0.4,0.6,0.4,1.2,0,1.8C6.3,4.7,6.2,4.9,6.2,5.1
			C6.1,5.3,6,5.4,5.8,5.4C5.5,5.4,5.4,5.2,5.4,5c0.1-0.3,0.1-0.6,0.3-0.8C6,3.7,6,3.5,5.7,3.1c-0.4-0.6-0.4-1.2,0-1.8
			C5.8,1.2,5.9,1,5.9,0.8C6,0.6,6.1,0.4,6.3,0.4C6.6,0.5,6.7,0.6,6.8,0.9z"/>
		<path d="M7.9,3.6C7.8,3.5,7.8,3.3,7.7,3.1C7.3,2.5,7.3,2,7.7,1.3C7.8,1.2,7.8,1,7.9,0.8c0.1-0.2,0.2-0.4,0.4-0.3
			c0.2,0,0.4,0.2,0.3,0.4C8.6,1.1,8.5,1.4,8.3,1.7C8,2.2,8,2.3,8.3,2.8c0.4,0.6,0.4,1.2,0,1.7C8.2,4.7,8.2,4.9,8.1,5.1
			C8.1,5.3,7.9,5.4,7.7,5.4C7.5,5.4,7.3,5.2,7.4,5c0.1-0.3,0.2-0.6,0.3-0.8C7.8,4,7.8,3.8,7.9,3.6z"/>
	</g>
</g>
</svg>
