<?xml version="1.0" encoding="utf-8"?>
<!-- Generator: Adobe Illustrator 23.0.6, SVG Export Plug-In . SVG Version: 6.00 Build 0)  -->
<svg version="1.1" id="Слой_1" xmlns="http://www.w3.org/2000/svg" xmlns:xlink="http://www.w3.org/1999/xlink" x="0px" y="0px"
	 viewBox="0 0 177.5 249.5" style="enable-background:new 0 0 177.5 249.5;" xml:space="preserve">
<style type="text/css">
	.st0{stroke:#000000;stroke-width:2.8673;stroke-miterlimit:10;}
</style>
<g id="SvgjsG1019">
	<path class="st0" d="M155.4,63.8c-6.8-5.1-6.4-13.3-6-21.2c0.6-10.6,1.1-19.7-12.1-25.4c-14.7-6.3-22.3-1.7-30.4,3.2
		c-5.4,3.2-10.9,6.6-18.2,6.6h0c-7.3,0-12.9-3.4-18.2-6.6c-8.1-4.9-15.7-9.5-30.4-3.2C26.9,22.8,27.4,32,28,42.5
		c0.4,7.9,0.9,16.1-6,21.2l-4.3-5.7c3.6-2.7,3.5-7.5,3.1-15.1c-0.6-10.4-1.4-24.7,16.4-32.4c18.1-7.8,28.6-1.4,37,3.7
		c4.9,3,9.2,5.6,14.5,5.6c5.3,0,9.6-2.6,14.5-5.6c8.4-5.1,18.8-11.4,37-3.7c17.8,7.6,17,21.9,16.4,32.4c-0.4,7.6-0.5,12.4,3.1,15.1
		L155.4,63.8z"/>
	<path class="st0" d="M164.6,148.8l-7.1-0.8l7-66.5c0-0.1,0-0.1,0-0.2c0-0.1,1.3-8.7-3.2-13.9c-2.4-2.8-6.3-4.3-11.5-4.3
		c-14.9,0-16.9-10.5-18.3-18.1c-1.3-7.1-2.5-11.5-7.7-13.7c-8.9-3.8-13.6-0.4-19.7,3.8c-4.2,3-9.1,6.4-15.4,6.4s-11.1-3.4-15.4-6.4
		c-6.1-4.2-10.8-7.6-19.7-3.8C48.4,33.5,47.3,38,46,45c-1.4,7.6-3.3,18.1-18.3,18.1c-5.2,0-9.1,1.4-11.5,4.3
		C11.8,72.7,13,81.3,13,81.4c0,0.1,0,0.1,0,0.2l7,66.5l-7.1,0.8l-7-66.4c-0.2-1.3-1.5-12.1,4.8-19.6c3.9-4.5,9.6-6.8,17-6.8
		c8.6,0,9.6-3.8,11.2-12.2c1.2-6.7,2.8-15.1,11.9-19c12.5-5.3,20.3,0.1,26.6,4.5c3.9,2.7,7.2,5.1,11.3,5.1c4,0,7.4-2.3,11.3-5.1
		c6.3-4.4,14.1-9.9,26.6-4.5c9.1,3.9,10.7,12.3,11.9,19c1.6,8.5,2.6,12.2,11.2,12.2c7.4,0,13.1,2.3,17,6.8c6.4,7.5,5,18.3,4.8,19.6
		L164.6,148.8L164.6,148.8z"/>
	<path class="st0" d="M47.6,78.3l-3.7-6.1C61.5,61.4,76.6,56,88.7,56c12.1,0,27.6,5.4,46,16l-3.6,6.2c-17.1-9.9-31.8-15.1-42.4-15.1
		C78.1,63.1,63.8,68.4,47.6,78.3z"/>
	<path class="st0" d="M88.5,138.4c-1,0-1.9-0.4-2.6-1.1c-0.4-0.4-35.8-37.5-78.2-52.6c-1.9-0.7-2.8-2.7-2.2-4.6c0.3-0.9,1-1.6,1.8-2
		C8,77.8,23,70.7,37.2,70.7c1.2,0,2.4,0.1,3.6,0.2c15,1.4,28.7,9,38.5,21.6c9.5,12.1,14.2,27.7,12.8,42.7
		C91.9,137,90.4,138.4,88.5,138.4L88.5,138.4z M18.8,81.4c30.1,12.8,55.1,34.5,66.2,45c-0.7-10.5-4.7-20.9-11.4-29.4
		C65,85.9,53.1,79.2,40.1,78c-1-0.1-1.9-0.1-2.9-0.1C30.7,77.9,23.9,79.6,18.8,81.4z"/>
	<path class="st0" d="M89,138.4c-1.9,0-3.4-1.4-3.6-3.3C84,120,88.6,104.9,98.2,92.7c9.8-12.3,23.4-20.1,38.4-21.8
		c1.6-0.2,3.2-0.3,4.8-0.3c15,0,28.2,7.3,28.8,7.6c1.7,1,2.4,3.1,1.4,4.9c-0.4,0.8-1.1,1.3-1.9,1.6c-42.4,15-77.8,52.2-78.2,52.6
		C90.9,138,89.9,138.4,89,138.4z M141.5,77.8c-1.4,0-2.7,0.1-4,0.2c-24.2,2.7-43.3,24-45,48.3c11.1-10.5,36.4-32.4,66.7-45.2
		C154.4,79.5,148.1,77.8,141.5,77.8L141.5,77.8z"/>
	<path class="st0" d="M110,242.6H67.5c-15.4,0-26.8-3.4-34.7-10.3c-7.7-6.8-12.3-16.7-14.3-31.3c0,0,0-0.1,0-0.1L5.9,82.3
		c-0.2-2,1.2-3.7,3.2-3.9c0.5-0.1,1,0,1.4,0.1c1.5,0.5,37.5,11.8,78.2,51c42.8-42.2,77-50.7,78.5-51c1.9-0.5,3.9,0.7,4.3,2.7
		c0.1,0.4,0.1,0.8,0.1,1.2l-12.5,118.5c0,0,0,0.1,0,0.1c-2.1,14.6-6.6,24.5-14.3,31.3C136.8,239.2,125.5,242.6,110,242.6z M25.5,200
		c3.7,25.5,15.4,35.4,42,35.4H110c18,0,29.2-4.6,35.7-15.5c-6.9-13.6-14.5-26.6-22.8-38.7l-0.2-0.3c-11.3-16.3-22-28.7-29-36.2
		c-2.4-2.6-4.9-5.1-7.5-7.6l0,0c0,0-0.1-0.1-0.1-0.1C65.1,116.2,45.1,103.3,32,96.1c-7.9-4.3-14.2-7.2-18.4-8.8L25.5,200z
		 M93.8,134.5c1.8,1.8,3.5,3.6,5.2,5.4c10.7,11.4,20.7,23.9,29.8,37.3c11,15.9,17.3,27.1,20.7,33.8c1-3.3,1.8-6.9,2.4-11l11.9-113
		c-3.9,1.4-10,3.9-17.7,8C133.8,101.6,115,113.7,93.8,134.5z"/>
</g>
</svg>
