<?xml version="1.0" encoding="utf-8"?>
<!-- Generator: Adobe Illustrator 23.0.6, SVG Export Plug-In . SVG Version: 6.00 Build 0)  -->
<svg version="1.1" id="Слой_1" xmlns="http://www.w3.org/2000/svg" xmlns:xlink="http://www.w3.org/1999/xlink" x="0px" y="0px"
	 viewBox="0 0 507 507" style="enable-background:new 0 0 507 507;" xml:space="preserve">
<g>
	<path d="M398.8,497H90.1c-22.2,0-40.3-18.1-40.3-40.3V52.5c0-22.2,18.1-40.3,40.3-40.3h308.8c22.2,0,40.3,18.1,40.3,40.3v404.2
		C439.1,478.9,421,497,398.8,497z M90.1,28.8c-13,0-23.7,10.6-23.7,23.7v404.2c0,13,10.6,23.7,23.7,23.7h308.8
		c13,0,23.7-10.6,23.7-23.7V52.5c0-13-10.6-23.7-23.7-23.7H90.1z"/>
	<path d="M366.8,114.5H108.6c-4.5,0-8.2-3.7-8.2-8.2v0c0-4.5,3.7-8.2,8.2-8.2h258.3c4.5,0,8.2,3.7,8.2,8.2v0
		C375.1,110.9,371.4,114.5,366.8,114.5z"/>
	<path d="M323.7,167.8H108.3c-4.4,0-7.9-3.5-7.9-7.9v-0.7c0-4.4,3.5-7.9,7.9-7.9h215.4c4.4,0,7.9,3.5,7.9,7.9v0.7
		C331.6,164.3,328.1,167.8,323.7,167.8z"/>
	<path d="M277.4,221h-170c-3.9,0-7-3.2-7-7v-2.4c0-3.9,3.2-7,7-7h170c3.9,0,7,3.2,7,7v2.4C284.4,217.9,281.3,221,277.4,221z"/>
	<path d="M160.5,441.2c-36.5,0-66.3-29.7-66.3-66.3s29.7-66.3,66.3-66.3c36.5,0,66.3,29.7,66.3,66.3S197,441.2,160.5,441.2z
		 M160.5,325.4c-27.4,0-49.6,22.3-49.6,49.6c0,27.4,22.3,49.6,49.6,49.6s49.6-22.3,49.6-49.6C210.1,347.6,187.8,325.4,160.5,325.4z"
		/>
	<path d="M231.1,317.8c-3-3.6-7.6-3.7-10.8-0.2L161.4,383l-23.3-28l0,0c-3-3.6-7.6-3.7-10.8-0.2c-3.1,3.5-3.2,8.8-0.2,12.4
		l28.6,34.3c1.5,1.8,3,2.7,5.3,2.8s3.9-0.8,5.4-2.6l64.4-71.6C234,326.7,234.1,321.4,231.1,317.8z"/>
</g>
</svg>
